<?xml version="1.0" encoding="utf-8"?>
<!-- Generator: Adobe Illustrator 26.0.2, SVG Export Plug-In . SVG Version: 6.00 Build 0)  -->
<svg version="1.1" id="Layer_1" xmlns="http://www.w3.org/2000/svg" xmlns:xlink="http://www.w3.org/1999/xlink" x="0px" y="0px"
	 viewBox="0 0 512 512" style="enable-background:new 0 0 512 512;" xml:space="preserve">
<style type="text/css">
	.st0{fill:#999999;}
</style>
<g>
	<g>
		<path class="st0" d="M490.6,43H381.1V11h-20.9v32H151.7V11h-20.9v32H21.4C15.2,43,11,47.2,11,53.6v436.7c0,6.4,4.2,10.7,10.4,10.7
			h469.1c6.3,0,10.4-4.3,10.4-10.7V53.6C501,47.2,496.8,43,490.6,43z M480.1,479.7H31.9V64.3h99v32h20.9v-32h208.5v32h20.9v-32h99
			L480.1,479.7L480.1,479.7z"/>
		<path class="st0" d="M84,170.8c-6.3,0-10.4,4.3-10.4,10.7v245c0,6.4,4.2,10.7,10.4,10.7h344c6.3,0,10.4-4.3,10.4-10.7v-245
			c0-6.4-4.2-10.7-10.4-10.7H84z M417.6,415.8H94.4V192.1h323.2V415.8z"/>
		<rect x="214.3" y="232.6" class="st0" width="20.9" height="21.3"/>
		<rect x="276.9" y="232.6" class="st0" width="20.9" height="21.3"/>
		<rect x="339.4" y="232.6" class="st0" width="20.9" height="21.3"/>
		<rect x="151.7" y="293.3" class="st0" width="20.9" height="21.3"/>
		<rect x="214.3" y="293.3" class="st0" width="20.9" height="21.3"/>
		<rect x="276.9" y="293.3" class="st0" width="20.9" height="21.3"/>
		<rect x="339.4" y="293.3" class="st0" width="20.9" height="21.3"/>
		<rect x="151.7" y="355.1" class="st0" width="20.9" height="21.3"/>
		<rect x="214.3" y="355.1" class="st0" width="20.9" height="21.3"/>
		<rect x="276.9" y="355.1" class="st0" width="20.9" height="21.3"/>
		<rect x="339.4" y="355.1" class="st0" width="20.9" height="21.3"/>
	</g>
</g>
</svg>
