<?xml version="1.0" encoding="utf-8"?>
<!-- Generator: Adobe Illustrator 24.1.0, SVG Export Plug-In . SVG Version: 6.00 Build 0)  -->
<svg version="1.1" id="Layer_1" xmlns="http://www.w3.org/2000/svg" xmlns:xlink="http://www.w3.org/1999/xlink" x="0px" y="0px"
	 viewBox="0 0 30 18" style="enable-background:new 0 0 30 18;" xml:space="preserve">
<style type="text/css">
	.st0{fill-rule:evenodd;clip-rule:evenodd;fill:#999999;stroke:#999999;stroke-linejoin:round;}
</style>
<g id="Symbols---Jon-Chandler">
	<g id="icons-_x2F_-collapse-arrow" transform="translate(-12.000000, -17.000000)">
		<path id="Path" class="st0" d="M37.5,18.7L27,29.2L16.4,18.6l0,0C16,18.2,15.5,18,15,18c-1.1,0-2,0.9-2,2c0,0.5,0.2,1,0.6,1.4l0,0
			l12,12h0c0.4,0.4,0.9,0.6,1.4,0.6c0,0,0,0,0,0s0,0,0,0c0.6,0,1.1-0.2,1.4-0.6h0l12-12l0,0C40.8,21,41,20.5,41,20c0-1.1-0.9-2-2-2
			C38.4,18,37.8,18.3,37.5,18.7"/>
	</g>
</g>
</svg>
