<?xml version="1.0" encoding="utf-8"?>
<!-- Generator: Adobe Illustrator 24.1.0, SVG Export Plug-In . SVG Version: 6.00 Build 0)  -->
<svg version="1.1" id="Layer_1" xmlns="http://www.w3.org/2000/svg" xmlns:xlink="http://www.w3.org/1999/xlink" x="0px" y="0px"
	 viewBox="0 0 100 125" style="enable-background:new 0 0 100 125;" xml:space="preserve">
<style type="text/css">
	.st0{fill:#999999;}
</style>
<path class="st0" d="M79,11.6L71.4,4c-1.2-1.2-3.1-1.2-4.2,0L38.8,32.4c-0.3,0.3-0.5,0.7-0.7,1.1l-4.6,12.2
	c-0.6,1.6,0.2,3.3,1.8,3.9c0.7,0.3,1.4,0.3,2.1,0l12.2-4.6c0.4-0.2,0.8-0.4,1.1-0.7L79,15.9C80.2,14.7,80.2,12.8,79,11.6z
	 M46.9,39.5l-5.4,2l2-5.4l25.8-25.8l3.4,3.4L46.9,39.5z"/>
<path class="st0" d="M71.9,71.9V46c0-1.7-1.3-3-3-3s-3,1.3-3,3v25.9c0,1.7-1.3,3-3,3H11.1c-1.7,0-3-1.3-3-3V20.1c0-1.7,1.3-3,3-3H37
	c1.7,0,3-1.3,3-3s-1.3-3-3-3H11.1c-5,0-9,4-9,9v51.8c0,5,4,9,9,9h51.8C67.9,80.9,71.9,76.9,71.9,71.9z"/>
</svg>
