<?xml version="1.0" encoding="utf-8"?>
<!-- Generator: Adobe Illustrator 26.0.2, SVG Export Plug-In . SVG Version: 6.00 Build 0)  -->
<svg version="1.1" id="Layer_1" xmlns="http://www.w3.org/2000/svg" xmlns:xlink="http://www.w3.org/1999/xlink" x="0px" y="0px"
	 viewBox="0 0 488 488" style="enable-background:new 0 0 488 488;" xml:space="preserve">
<style type="text/css">
	.st0{fill:#999999;}
</style>
<g>
	<g>
		<path class="st0" d="M484.7,196.2c-4-3.8-10.3-3.7-14.1,0.3l-181,189.6l-14.1-57.6l188.8-189.7c3.9-3.9,3.9-10.2,0-14.1
			s-10.2-3.9-14.1,0L261.4,314.3l-70.3-17.7l-17.7-70.3L363,37.5c3.9-3.9,3.9-10.2,0-14.1s-10.2-3.9-14.1,0L159.3,212.3l-57.6-14.1
			l189.6-181c4-3.8,4.1-10.1,0.3-14.1S281.5-1,277.5,2.8L74.8,196.4l-0.1,0.1c-0.3,0.2-0.5,0.5-0.7,0.8c-0.1,0.1-0.1,0.1-0.2,0.2
			c-0.3,0.3-0.5,0.7-0.7,1v0.1c-0.2,0.3-0.4,0.7-0.5,1c0,0.1-0.1,0.2-0.1,0.3c-0.1,0.3-0.2,0.6-0.3,1c0,0.1,0,0.1-0.1,0.2L0.5,475.5
			c-0.9,3.4,0.1,7.1,2.6,9.6C5,487,7.6,488,10.2,488c0.8,0,1.7-0.1,2.5-0.3l274.4-71.6c0.1,0,0.1,0,0.2-0.1c0.3-0.1,0.6-0.2,1-0.3
			c0.1,0,0.2-0.1,0.3-0.1c0.3-0.2,0.7-0.3,1-0.5h0.1c0.4-0.2,0.7-0.5,1-0.7c0.1-0.1,0.1-0.1,0.2-0.2c0.3-0.2,0.5-0.5,0.8-0.7
			l0.1-0.1l193.6-202.7C488.8,206.3,488.7,200,484.7,196.2z M23.8,463.8l18.7-71.7l53,53L23.8,463.8z M117.9,439.3l-69.6-69.6
			l40.3-154.2l65.4,16l19.1,75.7c0.9,3.6,3.7,6.4,7.3,7.3l0,0l75.7,19.1l16,65.4L117.9,439.3z"/>
	</g>
</g>
</svg>
