<?xml version="1.0" encoding="utf-8"?>
<svg version="1.1" id="Layer_1" xmlns="http://www.w3.org/2000/svg" xmlns:xlink="http://www.w3.org/1999/xlink" x="0px" y="0px"
	 viewBox="0 0 40 40" style="enable-background:new 0 0 40 40;" xml:space="preserve">
<style type="text/css">
	.st0{fill-rule:evenodd;clip-rule:evenodd;fill:#999999;}
</style>
<g id="Page-1">
	<g id="icon-search">
		<path id="Fill-1" class="st0" d="M22.5,27c-5.7,0.6-10.7-3.5-11.3-9.1c-0.5-5.8,3.5-10.5,8.9-11.2c6-0.7,10.8,3.6,11.4,9.1
			C32.2,21.3,28.1,26.4,22.5,27 M3.4,34.8c-0.8,1-0.9,2.2-0.3,3.1c1,1.5,3,1.6,4.2,0.2c1.4-1.6,2.7-3.3,4.1-5c0.7-0.8,1.4-1.7,2-2.5
			c0.3-0.4,0.5-0.5,1-0.2c3,1.6,6.2,2.1,9.6,1.5c6.8-1.1,11.8-6.7,12.7-13.1c1-7.4-3.6-14.5-10.6-16.7c-2-0.6-4.1-0.8-5.6-0.7
			c-7.5,0.8-13.2,6.2-14.2,13C5.7,18.7,6.6,22.6,9.2,26c0.8,1.1,0.8,0.7,0,1.7C7.3,30.1,5.3,32.5,3.4,34.8"/>
	</g>
</g>
</svg>
