<?xml version="1.0" encoding="utf-8"?>
<!-- Generator: Adobe Illustrator 26.0.1, SVG Export Plug-In . SVG Version: 6.00 Build 0)  -->
<svg version="1.1" id="Layer_1" xmlns="http://www.w3.org/2000/svg" xmlns:xlink="http://www.w3.org/1999/xlink" x="0px" y="0px"
	 viewBox="0 0 1080 1080" style="enable-background:new 0 0 1080 1080;" xml:space="preserve">
<style type="text/css">
	.st0{clip-path:url(#SVGID_00000093861202321929042270000001467514550530487711_);}
	.st1{clip-path:url(#SVGID_00000002364663723983898810000008274837416565948293_);}
	.st2{fill:#999999;}
	.st3{fill:#FFFFFF;}
</style>
<g>
	<defs>
		<rect id="SVGID_1_" x="-420" y="-10" width="1920" height="1080"/>
	</defs>
	<clipPath id="SVGID_00000116917700333336978490000013561645193800689811_">
		<use xlink:href="#SVGID_1_"  style="overflow:visible;"/>
	</clipPath>
	<g style="clip-path:url(#SVGID_00000116917700333336978490000013561645193800689811_);">
		<g>
			<defs>
				<rect id="SVGID_00000096779829857477699470000011292740299956730277_" x="192.2" y="-79.6" width="695.6" height="965.2"/>
			</defs>
			<clipPath id="SVGID_00000171001458664220143200000015150107581123308197_">
				<use xlink:href="#SVGID_00000096779829857477699470000011292740299956730277_"  style="overflow:visible;"/>
			</clipPath>
			<g style="clip-path:url(#SVGID_00000171001458664220143200000015150107581123308197_);">
				<path class="st2" d="M774,308.5c-21.2,0-20.8-39.5,0.5-41.5v-92.5C774.6,99.7,714,39,639.1,38.9c-0.1,0-0.2,0-0.2,0H444.2
					c-74.8-0.1-135.5,60.6-135.6,135.4c0,0.1,0,0.1,0,0.2v361.2h40V174.5c0.1-52.8,42.8-95.5,95.6-95.6h194.7
					c52.8,0.1,95.5,42.8,95.6,95.6v159.2h40v-25.2L774,308.5z"/>
				<path class="st2" d="M808.2,387.6v241.5c0,59.1-48,107.1-107.1,107.1h-315c-1.1,0-2.2,0-3.3-0.1C324.9,734.4,279,687,279,629.2
					V387.6c0-11,8.9-19.9,19.9-19.9c0,0,0,0,0.1,0h489.3C799.3,367.7,808.2,376.6,808.2,387.6z"/>
				<path class="st3" d="M595.6,502.7c0-28.7-23.3-52-52-52c-28.7,0-52,23.3-52,52c0,16.9,8.2,32.7,22,42.5v107.1h60V545.1
					C587.4,535.4,595.6,519.5,595.6,502.7z"/>
			</g>
		</g>
	</g>
</g>
</svg>
